<svg xmlns="http://www.w3.org/2000/svg" xmlns:xlink="http://www.w3.org/1999/xlink" version="1.1" x="0px" y="0px" width="50px" height="50px" viewBox="0 0 50 50" enable-background="new 0 0 50 50" xml:space="preserve"><style>.style0{fill:	#0071BC;}.style1{fill:	#FFFFFF;}</style><g display="none"><rect display="inline" width="50" height="50" class="style0"/></g><g><path d="M36.166 23H27v-9.167c0-0.5-0.667-0.833-1.166-0.833h-1.667C23.667 13 23 13.3 23 13.833V23h-9.167 C13.333 23 13 23.7 13 24.166v1.667c0 0.5 0.3 1.2 0.8 1.167H23v9.167C23 36.7 23.7 37 24.2 37h1.667 C26.333 37 27 36.7 27 36.166V27h9.167C36.666 27 37 26.3 37 25.833v-1.667C37 23.7 36.7 23 36.2 23z" class="style1"/></g></svg>